<svg width="102" height="40" viewBox="0 0 102 40" fill="none" xmlns="http://www.w3.org/2000/svg">
<path d="M85.2886 26.2788C83.3927 26.3704 82.4182 26.8179 81.2363 27.7394C80.0524 28.663 78.9355 31.1855 78.9355 31.1855C83.7893 31.572 82.7417 28.5674 85.2886 26.2788Z" fill="white"/>
<path d="M76.205 28.5715C74.9397 29.3567 73.5625 31.745 73.5625 31.745C78.3186 32.6624 77.6026 29.5662 80.3529 27.5747C78.4773 27.4486 77.4724 27.7842 76.205 28.5715Z" fill="white"/>
<path d="M61.1378 27.7536C59.6955 28.0954 57.6348 29.9181 57.6348 29.9181C61.8254 32.2982 62.1264 29.1471 65.3447 28.1279C63.6318 27.4139 62.5801 27.4118 61.1378 27.7536Z" fill="white"/>
<path d="M79.0781 32.0826C79.0781 32.0826 81.0595 34.1067 82.7154 34.3976C84.3713 34.6885 85.7119 34.5583 87.5916 33.4333C83.9909 33.2828 83.4315 30.2599 79.0781 32.0826Z" fill="white"/>
<path d="M93.4239 26.1915C91.5279 26.3055 90.405 26.098 89.0298 27.7193C88.2405 28.6469 88.1348 29.2775 88.1348 29.2775C88.1348 29.2775 88.6088 29.719 89.8659 29.8431C92.0589 30.0567 92.8441 29.0029 94.0423 27.4833C94.6119 26.7611 95.5823 25.864 95.5823 25.864C95.5823 25.864 94.0342 26.1549 93.4239 26.1915Z" fill="white"/>
<path d="M84.4043 30.8601C84.4043 30.8601 86.2209 32.3472 87.6103 32.4529C88.9997 32.5587 90.0881 32.3472 91.5609 31.2893C88.5746 31.2303 87.771 28.9052 84.4043 30.8601Z" fill="white"/>
<path d="M62.7129 31.9952C62.7129 31.9952 63.9233 34.5421 65.3737 35.3497C66.8242 36.1573 68.1139 36.4604 70.2051 36.0047C66.8933 34.6723 67.3938 31.6473 62.7129 31.9952Z" fill="white"/>
<path d="M68.1348 32.6177C68.1348 32.6177 69.6137 35.0201 71.1475 35.665C72.6814 36.3099 73.9976 36.4747 76.0379 35.7911C72.5959 34.835 72.7546 31.7694 68.1348 32.6177Z" fill="white"/>
<path d="M73.6074 32.6502C73.6074 32.6502 75.3447 34.8777 76.9477 35.3517C78.5487 35.8257 79.8852 35.844 81.8523 34.9387C78.3127 34.3732 78.1174 31.3075 73.6074 32.6502Z" fill="white"/>
<path d="M57.3867 30.791C57.3867 30.791 58.3164 33.4539 59.6712 34.412C61.026 35.3702 62.2731 35.8116 64.3989 35.5838C61.2518 33.9014 62.0798 30.9497 57.3867 30.791Z" fill="white"/>
<path d="M56.2456 10.5236C57.397 10.5236 58.5545 10.7372 59.3987 10.8918L59.7832 10.961C60.0944 11.0159 60.3833 11.1624 60.6112 11.376C60.6356 11.2498 60.6579 11.1278 60.6803 11.0057C60.5623 10.9589 60.4382 10.9223 60.3121 10.8999L59.9195 10.8287C59.0671 10.6721 57.8995 10.4585 56.7297 10.4585C56.2903 10.4585 55.8367 10.4992 55.377 10.5744C55.6699 10.5419 55.9608 10.5236 56.2456 10.5236Z" fill="white"/>
<path d="M61.1433 8.43823C61.1616 8.33244 61.1799 8.22666 61.1962 8.12495C61.1982 8.11071 61.2002 8.0985 61.2023 8.08426C61.1657 8.08223 61.125 8.07816 61.0822 8.07613C60.714 8.05375 60.3682 7.90525 60.0977 7.66113C60.1241 7.70182 60.1505 7.74454 60.1811 7.78319C60.4272 8.10054 60.7649 8.32838 61.1433 8.43823Z" fill="white"/>
<path d="M66.1836 24.7085C66.7674 25.4978 67.5567 26.0429 68.7427 26.0429C70.0141 26.0429 71.428 25.2964 72.7075 23.968C72.6933 23.6547 72.675 23.3068 72.6506 22.9224C71.2815 24.6108 69.6581 25.6076 68.2586 25.6076C67.3533 25.6076 66.6942 25.2536 66.1836 24.7085Z" fill="white"/>
<path d="M65.9099 3.83463C66.5222 3.83463 66.8782 4.11739 67.0674 4.3554C67.5312 4.9311 67.3746 5.6492 67.281 6.07844C67.0206 7.31528 66.7602 8.56636 66.4998 9.81947L66.4408 10.1063C66.1886 11.3167 65.9343 12.5454 65.6719 13.7822C65.9974 13.4547 66.3228 13.1353 66.6504 12.8322C66.8253 11.9982 66.9982 11.1682 67.1691 10.3423L67.2281 10.0554C67.4885 8.80233 67.7489 7.55329 68.0093 6.31645C68.1049 5.87501 68.2839 5.05113 67.7468 4.38388C67.521 4.10315 67.104 3.76953 66.392 3.76953C66.2171 3.76953 66.034 3.79394 65.8082 3.8387C65.8448 3.83463 65.8773 3.83463 65.9099 3.83463Z" fill="white"/>
<path d="M53.0848 19.5271C53.2414 17.4684 53.9615 15.6294 54.6796 14.897C54.8566 14.718 55.0234 14.6082 55.1882 14.5675C55.2187 14.4231 55.2492 14.2827 55.2777 14.1464C55.1211 14.124 54.9746 14.1118 54.8546 14.1118C54.5718 14.1118 54.2972 14.2501 54.0165 14.537C52.9078 15.668 52.2833 18.3879 52.3199 20.3631C52.3199 20.3713 52.3199 20.3815 52.3199 20.3896C52.5152 20.2024 52.7715 19.9258 53.0848 19.5271Z" fill="white"/>
<path d="M48.9453 6.29226L49.3542 6.5384C49.8079 6.811 50.0174 7.35618 49.8628 7.86272C49.6655 8.50962 49.3603 9.6834 49.0837 10.8511H49.7733C50.3408 10.8511 50.8576 11.1379 51.1546 11.6221C51.2217 11.7319 51.2766 11.8499 51.3173 11.972C51.4922 11.8682 51.6713 11.7685 51.8503 11.675C51.5065 11.1196 50.9104 10.786 50.2554 10.786H49.8831C50.1395 9.72205 50.408 8.70084 50.585 8.12107C50.7741 7.50265 50.5199 6.83948 49.9645 6.50789L49.5556 6.26174C49.2057 6.05018 48.7826 6.01152 48.4062 6.13155C48.5954 6.13968 48.7806 6.19258 48.9453 6.29226Z" fill="white"/>
<path d="M81.3101 10.5236C81.719 10.5236 83.0311 10.6558 83.5478 12.2609C83.7248 12.1408 83.9079 12.029 84.093 11.9211C83.44 10.5724 82.193 10.4585 81.7963 10.4585C81.6071 10.4585 81.3956 10.4809 81.1738 10.5277C81.2186 10.5256 81.2654 10.5236 81.3101 10.5236Z" fill="white"/>
<path d="M74.6217 10.5236C77.0812 10.5236 77.3721 13.7093 77.545 15.6134C77.6182 16.3477 77.6772 17.1574 77.7321 18.1155C78.0027 17.6192 78.2122 17.1777 78.3668 16.781C78.3383 16.4271 78.3099 16.0914 78.2793 15.7741C78.0983 13.7866 77.7952 10.4585 75.1079 10.4585C74.8821 10.4585 74.6502 10.4829 74.4102 10.5338C74.4793 10.5277 74.5505 10.5236 74.6217 10.5236Z" fill="white"/>
<path d="M71.9868 16.0015C71.9767 16.0116 71.9685 16.0218 71.9584 16.032C71.6512 16.3615 71.2016 16.5141 70.7541 16.4388C70.512 16.3961 70.2923 16.2883 70.1133 16.1337C70.3493 16.5222 70.7419 16.7908 71.1955 16.8701C71.5007 16.923 71.8078 16.8843 72.0845 16.7664C72.0764 16.689 72.0662 16.6097 72.0581 16.5344C72.0336 16.3412 72.0113 16.1642 71.9868 16.0015Z" fill="white"/>
<path d="M85.7664 19.527C85.923 17.4683 86.6432 15.6293 87.3613 14.897C87.5383 14.718 87.7051 14.6081 87.8699 14.5674C87.9004 14.423 87.9309 14.2826 87.9594 14.1484C87.8027 14.126 87.6563 14.1138 87.5362 14.1138C87.2535 14.1138 86.9788 14.2521 86.6981 14.5389C85.5894 15.67 84.9649 18.3898 85.0015 20.3651C85.0015 20.3732 85.0015 20.3834 85.0015 20.3915C85.1988 20.2003 85.4531 19.9257 85.7664 19.527Z" fill="white"/>
<path d="M70.8531 10.5236C71.5407 10.5236 72.1652 10.7291 72.631 11.1054C72.7612 11.0342 72.8894 10.9732 73.0155 10.9162C72.5415 10.6212 71.9577 10.4585 71.3352 10.4585C71.1135 10.4585 70.8917 10.4849 70.668 10.5317C70.729 10.5256 70.7921 10.5236 70.8531 10.5236Z" fill="white"/>
<path d="M69.7954 15.731C69.7811 15.7045 69.7669 15.6801 69.7547 15.6517C69.6143 15.3282 69.3987 15.2834 69.1851 15.2834C69.1892 15.2855 68.9003 15.3465 68.0215 16.2558C68.4507 17.2567 69.122 18.7051 69.712 19.8158C69.9195 20.2308 70.0741 20.5054 70.1839 20.6865C70.249 20.6295 70.3243 20.5604 70.4138 20.4729C70.4809 20.4058 70.5542 20.3488 70.6315 20.2939C70.5643 20.1677 70.4931 20.0315 70.4199 19.8809C69.834 18.7763 69.1993 17.4032 68.8047 16.4938C69.3641 15.9283 69.6347 15.7635 69.7201 15.7188C69.7486 15.7229 69.773 15.7269 69.7954 15.731Z" fill="white"/>
<path d="M79.2036 22.4868C77.2324 25.2921 75.0537 28.0567 72.8811 30.512C72.6593 30.7643 72.3664 30.9392 72.0348 31.0165L69.0119 31.7306C68.8898 31.7591 68.7637 31.7733 68.6396 31.7733C68.2266 31.7733 67.8361 31.6146 67.5391 31.3461C67.8829 31.873 68.4809 32.2086 69.1238 32.2086C69.2682 32.2086 69.4126 32.1924 69.555 32.1578L72.578 31.4437C72.9584 31.3542 73.2961 31.1528 73.5544 30.8599C75.5683 28.5856 77.5986 26.0285 79.4599 23.4246C79.3521 23.1459 79.2646 22.8326 79.2036 22.4868Z" fill="white"/>
<path d="M40.7903 10.5236C41.303 10.5236 41.8339 10.7189 42.2733 11.0627C42.4055 10.9874 42.5479 10.9325 42.6944 10.8979C42.257 10.6131 41.7607 10.4585 41.2745 10.4585C41.0141 10.4585 40.7435 10.487 40.4648 10.5399C40.5747 10.5297 40.6825 10.5236 40.7903 10.5236Z" fill="white"/>
<path d="M60.4215 27.2328C58.7961 26.3357 57.7505 26.2198 56.2777 26.4028C55.2158 26.5351 53.5802 27.5909 52.7197 28.1483C50.655 27.302 48.698 26.3662 46.8224 25.3389C47.1255 25.1802 47.4062 25.0114 47.6564 24.8446C48.2687 25.6176 49.1252 26.0407 50.0935 26.0407C51.6009 26.0407 52.7604 25.2677 53.6006 24.5923C53.7125 24.511 53.8284 24.4215 53.9485 24.3238C53.8528 24.1 53.7816 23.8498 53.741 23.5691C53.4643 23.8193 53.2019 24.037 52.9659 24.2079C52.1603 24.8548 51.0415 25.6034 49.6093 25.6034C48.639 25.6034 47.8029 25.1477 47.2292 24.3136C46.3504 24.9321 45.1014 25.6034 43.8198 25.6034C43.0793 25.6034 42.4751 25.3816 42.0215 24.9443C42.0866 25.0378 42.1578 25.1273 42.233 25.2087C42.7437 25.76 43.4394 26.0387 44.3039 26.0387C44.8837 26.0387 45.4553 25.9085 45.9863 25.7112C47.9677 26.9501 50.0467 28.0852 52.258 29.1227C52.5204 30.1215 53.1897 32.0642 54.0949 32.8617C55.3419 33.9622 56.5361 34.5359 58.6741 34.5379C56.7802 33.5371 57.5674 31.1976 55.4416 29.7309C58.0536 29.8509 58.55 27.3386 60.4215 27.2328Z" fill="white"/>
<path d="M41.9364 24.857C41.8022 24.7106 41.6862 24.5458 41.5886 24.3647C40.4494 25.1561 39.2756 25.6077 38.3337 25.6077C37.6889 25.6077 37.164 25.4185 36.7734 25.0462C36.8121 25.1012 36.8507 25.1561 36.8935 25.2069C37.3471 25.7603 37.994 26.043 38.8179 26.043C39.7516 26.043 40.8684 25.6423 41.9873 24.9099C41.969 24.8916 41.9527 24.8733 41.9364 24.857Z" fill="white"/>
<path d="M94.7893 20.5809L94.7853 20.5728C94.5025 20.0764 94.0163 19.7407 93.4528 19.6512C93.3247 19.6309 93.1945 19.6248 93.0663 19.6289C93.4976 17.4034 94.1038 14.6835 94.4781 13.168C94.6002 12.6696 94.5127 12.1386 94.232 11.7114C93.9512 11.2822 93.5016 10.9852 92.9971 10.8977L92.6025 10.8265C91.7501 10.6699 90.5825 10.4563 89.4127 10.4563C88.9571 10.4563 88.4912 10.497 88.0213 10.5763C88.3264 10.5417 88.6295 10.5234 88.9286 10.5234C90.08 10.5234 91.2375 10.737 92.0838 10.8916L92.4682 10.9608C92.9056 11.0381 93.2962 11.2944 93.5383 11.6647C93.7803 12.0349 93.8576 12.4926 93.7498 12.9239C93.3348 14.6042 92.6879 17.5295 92.2689 19.7428C92.4825 19.6879 92.7083 19.6777 92.928 19.7123C93.4182 19.7896 93.8414 20.0825 94.0855 20.5158V20.5178C94.415 21.1017 94.354 21.8401 93.9288 22.3548C92.3523 24.269 90.1614 25.6056 88.6011 25.6056C87.8952 25.6056 87.4253 25.3309 87.1283 25.0461C87.1689 25.1031 87.2096 25.1601 87.2544 25.215C87.4171 25.4123 87.6511 25.6279 87.9725 25.7907C87.1038 26.0551 86.5078 26.464 85.8467 27.0825C84.9211 27.9491 84.207 30.1339 84.207 30.1339C87.8382 30.0891 87.4375 28.0345 88.7943 26.0267C88.8879 26.0368 88.9835 26.0429 89.0852 26.0429C90.7167 26.0429 92.987 24.6678 94.6083 22.7006C95.0965 22.1066 95.1698 21.2542 94.7893 20.5809Z" fill="white"/>
<path d="M37.0475 17.7552C37.1289 17.4195 37.2123 17.0879 37.2917 16.7665L37.3283 16.616C37.373 16.4309 37.4178 16.2478 37.4625 16.0708C37.0252 16.5204 36.4373 17.2242 35.8595 18.2129C35.3632 19.0632 35.2045 19.6328 35.0011 20.4709C34.7549 21.5328 34.3786 23.1826 34.1324 24.332C33.9737 25.0725 33.3085 25.6116 32.5477 25.6136L23.7291 25.6197C23.3182 25.6197 22.9337 25.4671 22.6367 25.1945C22.6672 25.2413 22.6977 25.2861 22.7303 25.3288C23.0883 25.7906 23.6274 26.055 24.2133 26.055L33.0339 26.0489C33.9107 26.0469 34.6796 25.4244 34.8627 24.568C35.1089 23.4166 35.4852 21.7708 35.7314 20.713C35.9287 19.8973 36.0833 19.344 36.5613 18.5241C36.7241 18.2414 36.8868 17.9871 37.0475 17.7552Z" fill="white"/>
<path d="M67.1169 30.74C66.83 30.0076 67.1047 29.1736 67.7699 28.7586C68.0587 28.5775 68.3659 28.3782 68.6833 28.1625C67.776 28.0914 67.0172 28.25 66.1119 28.5714C64.7164 29.0658 62.8652 31.1021 62.8652 31.1021C65.164 32.0968 66.2564 31.7185 67.2105 30.9353C67.1738 30.8722 67.1433 30.8071 67.1169 30.74Z" fill="white"/>
<path d="M86.6328 24.324C86.5372 24.1002 86.4681 23.85 86.4253 23.5713C86.1487 23.8215 85.8863 24.0371 85.6503 24.2101C84.8427 24.857 83.7238 25.6056 82.2937 25.6056C81.6224 25.6056 80.8738 25.3492 80.2676 24.7329C80.4181 24.9363 80.5849 25.1194 80.768 25.278C81.3356 25.7703 82.0496 26.0409 82.7779 26.0409C84.2832 26.0409 85.4448 25.2679 86.287 24.5925C86.3969 24.5132 86.5128 24.4216 86.6328 24.324Z" fill="white"/>
<path d="M64.4072 24.4907L64.4417 24.2812C64.5496 23.6424 64.6676 22.9426 64.8059 22.1798C64.6472 21.7953 64.4621 21.3437 64.277 20.8799C64.0451 22.072 63.8681 23.1156 63.7094 24.0534L63.6748 24.2629C63.5426 25.0461 62.8693 25.6157 62.0739 25.6157H59.3561C59.0957 25.6157 58.8393 25.5262 58.6359 25.3634L58.4203 25.1905C58.3287 25.1152 58.2474 25.0298 58.1823 24.9301C57.3604 25.3736 56.5813 25.6055 55.9181 25.6055C55.2122 25.6055 54.7423 25.3329 54.4453 25.0481C54.486 25.1051 54.5267 25.162 54.5714 25.217C54.8827 25.5933 55.4523 26.0429 56.4023 26.0429C57.0533 26.0429 57.808 25.8333 58.5993 25.4346C58.6461 25.4835 58.6949 25.5302 58.7478 25.573L58.9634 25.7459C59.2116 25.9432 59.5229 26.0531 59.8402 26.0531H62.558C63.4775 26.0531 64.2546 25.396 64.4072 24.4907Z" fill="white"/>
<path d="M28.9082 15.4971C28.9713 15.8592 29.0343 16.207 29.0933 16.5468C29.2968 17.6961 29.4778 18.7234 29.6426 19.6775C29.7748 19.0794 29.907 18.4773 30.0372 17.8853C29.9782 17.5517 29.9172 17.2099 29.8541 16.8478L29.7646 16.3454C29.9274 16.4389 30.1044 16.5081 30.2895 16.5508C30.3017 16.5529 30.3139 16.5549 30.3241 16.5569C30.3525 16.4206 30.3831 16.2864 30.4115 16.1521C30.2284 16.1745 30.0433 16.1623 29.8602 16.1216C29.4737 16.0321 29.1381 15.8103 28.9082 15.4971Z" fill="white"/>
<path d="M19.8708 22.2409C19.8322 22.2348 19.7955 22.2307 19.7589 22.2246L19.7813 22.1758C20.1068 21.4862 20.5075 20.6379 20.8798 19.8994H23.7644C23.7441 19.755 23.7258 19.6085 23.7054 19.4641H20.2411C19.8464 20.2392 19.4151 21.1526 19.0652 21.8951L18.9473 22.1433C18.933 22.1738 18.9188 22.2022 18.9066 22.2287C19.0205 22.2531 19.167 22.2796 19.35 22.304C19.8016 22.367 20.2105 22.6193 20.4689 22.9956C20.7252 23.3679 20.8147 23.8358 20.713 24.2752L20.6967 24.3504C20.5259 25.095 19.8749 25.6158 19.112 25.6158H13.3815C12.9705 25.6158 12.5861 25.4632 12.2891 25.1906C12.3196 25.2374 12.3501 25.2821 12.3826 25.3249C12.7407 25.7866 13.2798 26.0511 13.8636 26.0511H19.5962C20.475 26.0511 21.2277 25.451 21.425 24.5905L21.4413 24.5152C21.5572 24.0067 21.4555 23.4676 21.1585 23.0363C20.8635 22.605 20.3936 22.3141 19.8708 22.2409Z" fill="white"/>
<path d="M27.365 6.40986C27.8532 9.41245 28.2824 11.9166 28.6567 14.0506C28.7259 13.8167 28.8479 13.599 29.0209 13.4118C29.086 13.3427 29.151 13.2735 29.2161 13.2064C28.9252 11.5301 28.5367 9.25378 28.0973 6.55429C27.9345 5.55953 26.9866 4.86177 25.9755 4.99603L25.5605 5.05706C26.417 4.95942 27.2246 5.55546 27.365 6.40986Z" fill="white"/>
<path d="M33.9642 10.5236C34.8512 10.5236 35.3781 10.9488 35.6629 11.3048C35.9578 11.673 36.1389 12.1388 36.2101 12.7145C36.4094 12.5396 36.6068 12.3748 36.8061 12.2181C36.7003 11.8825 36.5478 11.5896 36.3444 11.3332C36.025 10.9345 35.4371 10.4585 34.4504 10.4585C34.2185 10.4585 33.9805 10.4849 33.7344 10.5338C33.8117 10.5277 33.889 10.5236 33.9642 10.5236Z" fill="white"/>
<path d="M23.1405 15.6051L22.9513 14.3662L22.1641 15.7922H23.169L23.1609 15.7271H23.0734L23.1405 15.6051Z" fill="white"/>
<path d="M11.8087 23.5873L11.825 23.5222C11.827 23.5141 11.8291 23.506 11.8311 23.4999C11.4995 23.4104 11.1089 23.2822 10.6736 23.0869C9.99211 22.7858 9.20484 22.2915 8.54777 21.5083C8.22025 21.1177 7.93342 20.6539 7.71982 20.127C7.50825 19.6022 7.37196 19.0163 7.33331 18.3999C7.29466 17.7856 7.35772 17.1346 7.55504 16.5121C7.65269 16.2029 7.78695 15.8937 7.95376 15.6252C8.04327 15.4807 8.15109 15.3383 8.24873 15.1939C8.35655 15.0535 8.45826 14.9091 8.57218 14.7728C8.79392 14.4941 9.04413 14.2378 9.30656 13.9876C9.57305 13.7435 9.85988 13.5177 10.165 13.3142C10.7773 12.9114 11.467 12.6063 12.2034 12.4171C13.6803 12.0286 15.3239 12.1221 16.931 12.4802C17.7976 12.6673 18.6581 12.9277 19.5105 13.243L20.0882 12.2462C19.1341 11.8943 18.1577 11.5993 17.1609 11.3939C16.2943 11.2169 15.4114 11.1172 14.5326 11.1172C13.6538 11.1152 12.775 11.223 11.9409 11.463C11.1028 11.6929 10.3278 12.0916 9.64831 12.5738C9.31062 12.8199 8.99938 13.0884 8.71051 13.3732C8.42978 13.6641 8.16329 13.9611 7.93138 14.2764C7.81136 14.4311 7.70558 14.5938 7.59573 14.7504C7.49605 14.9152 7.3923 15.0719 7.29872 15.2407C7.1014 15.5987 6.96917 15.9568 6.87153 16.3229C6.6803 17.0512 6.64776 17.7795 6.72302 18.461C6.87153 19.83 7.48791 20.9936 8.2467 21.785C8.62304 22.1857 9.036 22.497 9.43675 22.739C9.83954 22.9811 10.2342 23.1561 10.5963 23.2883C11.0581 23.4551 11.4649 23.5487 11.8067 23.6097C11.8067 23.5975 11.8067 23.5914 11.8087 23.5873Z" fill="white"/>
<path d="M7.85991 12.112C8.1142 11.8374 8.4112 11.5648 8.74483 11.2983C9.4141 10.7674 10.2563 10.2873 11.2511 9.98012C12.2438 9.67701 13.3728 9.51834 14.573 9.55902C15.7733 9.59767 17.0426 9.76652 18.3324 10.0818L18.5745 10.1408L18.6884 10.1693L18.8125 10.2019L19.0606 10.2669L19.2966 10.3361C19.6119 10.4236 19.9333 10.5314 20.2527 10.6413C20.4602 10.7145 20.6677 10.7959 20.8752 10.8772L21.4285 9.92112C20.5497 9.61801 19.4268 9.27829 18.5521 9.08503C18.1147 8.99553 17.2054 8.8043 16.5361 8.73717C15.8689 8.66597 15.2138 8.61715 14.569 8.63546C13.2833 8.67004 12.0587 8.8755 11.0049 9.2966C9.94912 9.71159 9.06827 10.2914 8.41934 10.9301C7.76023 11.5607 7.30049 12.2036 6.97907 12.7589C6.65155 13.3123 6.45016 13.77 6.31997 14.0853C6.25283 14.2419 6.21215 14.364 6.1796 14.4474C6.14909 14.5288 6.13281 14.5715 6.13281 14.5715C6.13281 14.5715 6.22232 14.4128 6.38913 14.1178C6.55798 13.8249 6.8204 13.4018 7.19674 12.9013C7.38186 12.6471 7.60563 12.3846 7.85991 12.112Z" fill="white"/>
<path d="M93.0822 21.0875C92.9296 20.8189 92.5695 20.7681 92.3417 20.9776C91.7578 21.5126 91.3001 21.7812 91.058 21.7812C90.8404 21.7812 90.8119 21.3987 90.9218 20.7152C91.2777 18.6097 92.0793 14.8768 92.6305 12.6513C92.6936 12.395 92.5288 12.1448 92.2684 12.1C91.473 11.9617 90.1569 11.6789 88.9282 11.6789C86.9081 11.6789 84.7518 12.6066 83.2485 13.9451C82.9128 14.2584 82.6117 14.6083 82.329 14.9724C82.5161 14.3723 82.6056 13.8332 82.5914 13.4264C82.51 12.1977 82.0177 11.6789 81.3078 11.6789C80.8155 11.6789 80.079 11.9515 79.5054 12.6615C79.2877 13.0175 79.2328 13.2352 79.3955 13.6176C79.5318 13.9736 79.8329 14.6836 79.8329 15.3386C79.8593 17.1959 78.2217 19.6248 76.7469 21.8646C76.6655 20.3083 76.6106 17.9323 76.3909 15.721C76.1732 13.3186 75.8172 11.681 74.617 11.681C73.9355 11.681 73.0852 12.0939 72.2654 12.7225C72.2491 12.1082 71.6571 11.681 70.8495 11.681C68.7746 11.681 65.416 15.776 63.6685 17.6048C64.5433 13.6461 65.3346 9.71383 66.1524 5.83649C66.2887 5.2079 66.2622 4.99023 65.9062 4.99023C65.4363 4.99023 63.5933 5.63917 61.142 5.93414C60.9406 5.95855 60.7738 6.10705 60.7331 6.30641L60.7209 6.36337C60.6639 6.6441 60.8653 6.91263 61.1501 6.9289C62.4154 7.0062 62.5232 7.15877 62.33 8.32035C61.7441 11.7705 60.8063 16.4208 59.9214 20.6176C59.9031 20.703 59.8583 20.7844 59.7953 20.8434C59.1443 21.4658 58.6337 21.7791 58.3713 21.7791C58.1536 21.7791 58.1251 21.3967 58.235 20.7132C58.591 18.6077 59.3925 14.8748 59.9438 12.6493C60.0068 12.393 59.8421 12.1428 59.5817 12.098C58.7863 11.9597 57.4701 11.6769 56.2414 11.6769C54.2213 11.6769 52.063 12.6045 50.5617 13.9431C48.623 15.7455 47.5591 18.5039 47.5591 21.1505C47.5591 21.1566 47.5591 21.1627 47.5591 21.1709C46.961 21.6896 46.3975 21.9968 46.0293 21.9968C45.7832 21.9968 45.6469 21.7791 45.8381 20.7681C46.1107 19.2119 46.0558 19.5394 47.3394 13.3694C47.9822 13.347 49.0217 13.3531 49.6015 13.3023C49.7642 13.2881 49.9087 13.1904 49.9819 13.0439L50.1935 12.6879C50.3501 12.3747 50.1223 12.0044 49.7724 12.0044H47.6425C47.9436 10.5845 48.4623 8.50953 48.7613 7.52698L48.3525 7.28083C47.6405 7.84026 46.2185 8.58887 45.2766 9.06286C45.1485 9.12795 45.059 9.24594 45.0284 9.38631L44.4751 12.0044H43.0715C42.923 12.0044 42.7846 12.0736 42.6951 12.1916L42.1398 12.8202C41.857 12.0085 41.2386 11.6769 40.789 11.6769C38.769 11.6769 36.1203 14.0245 34.5906 16.2906L34.8082 15.3895C35.4083 12.7144 34.9995 11.6769 33.962 11.6769C33.0201 11.6769 31.5249 12.4052 29.8629 14.1994C29.7327 14.3398 29.7022 14.5493 29.7836 14.7222L29.7897 14.7365C29.9199 15.0131 30.2779 15.1026 30.5139 14.9094C30.9858 14.5249 31.472 14.2177 31.6958 14.2177C31.9135 14.2177 31.9684 14.4639 31.7772 15.2816C31.234 17.8001 30.6603 20.4609 30.1172 22.7881C30.0277 23.1685 29.5415 23.2723 29.2953 22.9671C28.9312 22.5155 28.8153 21.7323 28.6057 20.4691C28.0463 17.1613 27.2773 13.0724 26.2236 6.59528C26.1829 6.34099 25.9449 6.16401 25.6886 6.20063L25.064 6.29217C24.9216 6.31251 24.7955 6.39795 24.7243 6.52205L16.8964 20.0581C15.4175 22.5745 15.0981 23.1767 13.3141 23.4655C13.131 23.494 12.9865 23.6344 12.9398 23.8134L12.9235 23.8765C12.8462 24.1755 13.072 24.4664 13.3812 24.4664H19.1138C19.3335 24.4664 19.5247 24.3138 19.5735 24.1002L19.5918 24.0209C19.6529 23.7503 19.4657 23.4879 19.1931 23.4493C17.3826 23.195 17.3806 22.7596 17.9075 21.655C18.3326 20.7539 18.9185 19.5007 19.4128 18.5609C19.4942 18.4063 19.6549 18.3127 19.8278 18.3127H24.2971C24.5331 18.3127 24.7304 18.4856 24.765 18.7175C24.9094 19.7225 25.0498 20.8637 25.1698 21.6794C25.3244 22.8898 25.2838 23.2743 23.6787 23.4737C23.4895 23.4981 23.3329 23.6385 23.2861 23.8236L23.2739 23.8744C23.1966 24.1735 23.4224 24.4644 23.7316 24.4644H29.7266L32.5482 24.4583C32.7699 24.4583 32.9611 24.3037 33.0079 24.088C33.2602 22.9122 33.6385 21.2543 33.8847 20.1965C34.1023 19.2953 34.2936 18.6118 34.8672 17.6292C36.0959 15.5258 37.7071 14.0794 38.4435 14.0794C38.8259 14.0794 39.0436 14.4618 38.7161 15.8004C38.3072 17.4929 37.76 19.5963 37.4325 21.2889C36.9137 23.8561 37.3775 24.4562 38.3336 24.4562C39.245 24.4562 40.85 23.7829 42.392 22.1575C42.2598 23.8561 42.809 24.4562 43.8221 24.4562C45.0671 24.4562 46.5623 23.5245 47.6913 22.4565C47.9781 23.791 48.7186 24.4562 49.6117 24.4562C50.5393 24.4562 51.3327 24.0473 52.2867 23.2825C52.9967 22.7637 54.199 21.6164 55.2365 20.1415L55.0452 21.0976C54.5529 23.6649 55.0188 24.4562 55.9179 24.4562C56.8334 24.4562 58.2451 23.7402 59.5206 22.5216C59.3904 23.1299 59.2623 23.7239 59.1402 24.2935L59.3559 24.4664H62.0737C62.3035 24.4664 62.5009 24.3016 62.5395 24.0758C62.7409 22.8797 62.9728 21.4862 63.3166 19.8161C63.398 19.4336 64.1913 18.7236 64.5453 18.3148C64.8993 19.3807 65.5563 20.9919 66.0466 22.1656C66.7566 23.968 67.3302 24.4583 68.2579 24.4583C69.1204 24.4583 70.5342 23.8073 71.948 21.9541C72.062 21.8035 72.0742 21.594 71.9786 21.4313L71.9602 21.4008C71.8056 21.1343 71.4415 21.0854 71.2238 21.3011C70.756 21.7629 70.3349 22.0558 70.0602 22.0558C69.7327 22.0558 69.4316 21.8381 68.6952 20.3633C67.9853 19.0247 67.1126 17.1145 66.6752 16.0221C67.8225 14.7385 68.5874 14.1384 69.1875 14.1384C70.2047 14.1384 70.6441 14.8077 70.8129 15.2003C70.8658 15.3223 71.0245 15.3467 71.114 15.2511C71.7609 14.5574 72.1881 14.2218 72.4363 14.2218C72.6824 14.2218 72.9815 14.5229 73.2012 16.4066C73.5205 19.1285 73.8948 23.1828 73.8847 25.0218C73.8847 25.1031 73.8562 25.1784 73.8053 25.2415C72.3488 27.0357 69.9036 28.7913 68.3779 29.7433C68.1806 29.8654 68.1033 30.1095 68.1887 30.3251C68.2762 30.5489 68.5142 30.673 68.7481 30.6181L71.7711 29.902C71.8667 29.8796 71.9521 29.8288 72.0172 29.7555C75.2741 26.0755 78.417 21.8218 80.6914 18.1703C80.3984 19.1427 80.2459 20.1578 80.2459 21.1566C80.2459 23.3679 81.147 24.4603 82.2944 24.4603C83.222 24.4603 84.0154 24.0514 84.9695 23.2865C85.6794 22.7678 86.8817 21.6205 87.9192 20.1456L87.7279 21.1017C87.2377 23.669 87.7015 24.4603 88.6006 24.4603C89.7215 24.4603 91.589 23.3903 93.0394 21.6306C93.1635 21.472 93.1798 21.2563 93.0822 21.0875ZM21.0179 16.9457C20.6598 16.9457 20.432 16.5653 20.6008 16.25C21.5468 14.5107 22.5904 12.6656 23.5302 10.8835H23.5851L24.4294 16.4005C24.4741 16.6853 24.2524 16.9437 23.9635 16.9437L21.0179 16.9457ZM42.6199 20.4263C42.6016 20.5077 42.5629 20.585 42.5059 20.646C41.7288 21.5004 41.1348 21.8056 40.8439 21.8056C40.6263 21.8056 40.6263 21.5045 40.7626 20.7945C41.0636 19.4295 41.5539 17.3261 41.9099 15.8533C42.1601 14.771 42.2517 13.9695 42.2354 13.3694H44.1761L42.6199 20.4263ZM55.9179 16.5917C55.6453 17.6556 55.2344 18.5039 54.7706 19.159C53.432 21.1526 52.4495 21.9439 51.8494 21.9439C51.4669 21.9439 51.1659 21.4801 51.1659 20.3877C51.1109 17.4929 52.3396 12.9605 54.852 12.9605C55.2588 12.9605 55.8183 13.0521 56.2353 13.1884C56.4489 13.2596 56.5811 13.4711 56.5404 13.6929C56.4001 14.4679 56.1275 15.6295 55.9179 16.5917ZM88.6006 16.5917C88.328 17.6556 87.9192 18.5039 87.4533 19.159C86.1147 21.1526 85.1322 21.9439 84.5321 21.9439C84.1496 21.9439 83.8486 21.4801 83.8486 20.3877C83.7936 17.4929 85.0223 12.9605 87.5347 12.9605C87.9415 12.9605 88.501 13.0521 88.918 13.1884C89.1316 13.2596 89.2638 13.4711 89.2231 13.6929C89.0828 14.4679 88.8122 15.6295 88.6006 16.5917Z" fill="white"/>
</svg>
