<svg width="1200" height="605" viewBox="0 0 1200 605" fill="none" xmlns="http://www.w3.org/2000/svg">
<mask id="mask0_61_3693" style="mask-type:alpha" maskUnits="userSpaceOnUse" x="0" y="3" width="1179" height="602">
<path d="M0 560C0 573.978 0 580.967 2.28361 586.481C5.32843 593.831 11.1687 599.672 18.5195 602.716C24.0326 605 31.0218 605 45 605H1123.14C1145.55 605 1156.75 605 1163.68 601.026C1172.92 595.728 1178.66 585.927 1178.76 575.274C1178.83 567.285 1173.35 557.516 1162.39 537.977L929.296 122.637C925.619 116.085 923.781 112.809 921.35 110.191C918.108 106.701 914.082 104.033 909.605 102.407C906.247 101.188 902.514 100.771 895.047 99.9377L49.9936 5.58209C34.6422 3.86804 26.9665 3.01099 20.8682 4.95972C12.7371 7.55804 6.098 13.4972 2.61343 21.2897C0 27.134 0 34.8574 0 50.3042V560Z" fill="white"/>
</mask>
<g mask="url(#mask0_61_3693)">
<g opacity="0.6">
<g opacity="0.2">
<g opacity="0.25">
<path d="M1206.42 545.917C1179.06 532.594 1161.14 532.072 1135.74 537.42C1110.31 542.784 1070.39 573.923 1070.39 573.923C1134.46 617.836 1148.79 562.222 1206.42 545.917Z" fill="#6C002D"/>
<path d="M1054.16 506.301C1028.74 508.865 986.174 536.055 986.174 536.055C1044.18 587.974 1064.17 533.095 1122.2 522.992C1097.04 506.267 1079.64 503.721 1054.16 506.301Z" fill="#6C002D"/>
<path d="M838.085 364.361C814.144 358.381 766.798 371.419 766.798 371.419C803.146 443.344 838.469 394.784 894.415 403.976C877.01 378.763 862.026 370.34 838.085 364.361Z" fill="#6C002D"/>
<path d="M1068.08 584.474C1068.08 584.474 1076.46 633.334 1097.32 651.367C1118.17 669.4 1138.68 678.046 1176.75 674.828C1126.63 643.463 1148.52 589.763 1068.08 584.474Z" fill="#6C002D"/>
<path d="M1156.34 612.235C1156.34 612.235 1167.69 651.117 1186.59 664.026C1205.49 676.935 1223.21 682.243 1254.84 676.839C1212.55 651.841 1224.05 607.438 1156.34 612.235Z" fill="#6C002D"/>
<path d="M828.198 442.401C828.198 442.401 820.465 492.664 833.086 517.014C845.707 541.363 860.977 556.379 894.974 565.585C861.167 518.167 897.74 473.751 828.198 442.401Z" fill="#6C002D"/>
<path d="M902.665 498.148C902.665 498.148 900.118 548.565 915.594 571.126C931.071 593.686 948.162 606.79 983.87 611.988C944.324 569.266 976.654 521.176 902.665 498.148Z" fill="#6C002D"/>
<path d="M982.85 545.708C982.85 545.708 985.703 595.661 1003.92 616.143C1022.11 636.609 1041.02 647.583 1078.04 648.638C1033.06 611.202 1060.49 559.994 982.85 545.708Z" fill="#6C002D"/>
<path d="M760.016 378.983C760.016 378.983 747.277 428.501 757.01 454.302C766.743 480.104 779.965 496.864 811.998 509.883C784.131 458.57 824.327 418.221 760.016 378.983Z" fill="#6C002D"/>
<path d="M897.177 461.436C900.257 447.507 912.241 436.37 925.653 434.985C931.486 434.37 937.755 433.607 944.325 432.665C932.229 424.397 919.991 420.96 904.105 418.966C879.627 415.874 833.728 433.779 833.728 433.779C856.453 467.711 875.531 470.269 896.596 465.285C896.694 463.992 896.897 462.714 897.177 461.436Z" fill="#6C002D"/>
</g>
</g>
<g opacity="0.4">
<g opacity="0.25">
<path d="M323.845 564.23L324.389 562.052C324.457 561.78 324.525 561.508 324.593 561.304C313.503 558.31 300.439 554.023 285.878 547.492C263.084 537.422 236.753 520.888 214.775 494.692C203.821 481.628 194.227 466.115 187.083 448.492C180.007 430.938 175.448 411.342 174.155 390.725C172.862 370.177 174.972 348.404 181.571 327.583C184.837 317.241 189.328 306.899 194.907 297.918C197.901 293.087 201.507 288.324 204.773 283.493C208.38 278.798 211.782 273.967 215.592 269.409C223.008 260.087 231.377 251.514 240.155 243.145C249.068 234.98 258.662 227.427 268.868 220.623C289.348 207.151 312.414 196.945 337.045 190.617C386.443 177.621 441.42 180.751 495.172 192.726C524.157 198.986 552.939 207.695 581.448 218.242L600.771 184.902C568.86 173.131 536.201 163.265 502.861 156.393C473.875 150.473 444.345 147.139 414.952 147.139C385.558 147.071 356.164 150.677 328.268 158.706C300.235 166.395 274.311 179.731 251.586 195.856C240.291 204.089 229.88 213.071 220.219 222.596C210.829 232.326 201.916 242.26 194.159 252.807C190.145 257.978 186.606 263.421 182.932 268.66C179.598 274.171 176.128 279.411 172.998 285.058C166.398 297.033 161.976 309.008 158.71 321.256C152.314 345.614 151.225 369.973 153.743 392.767C158.71 438.558 179.326 477.477 204.705 503.945C217.293 517.349 231.105 527.76 244.509 535.857C257.981 543.953 271.181 549.805 283.293 554.228C298.738 559.807 312.346 562.937 323.777 564.978C323.777 564.57 323.777 564.366 323.845 564.23Z" fill="#6C002D"/>
<path d="M191.768 180.411C200.273 171.226 210.207 162.108 221.365 153.195C243.751 135.436 271.92 119.378 305.192 109.104C338.396 98.9661 376.158 93.659 416.303 95.0198C456.447 96.3126 498.904 101.96 542.042 112.506L550.139 114.479L553.949 115.432L558.1 116.521L566.401 118.698L574.294 121.011C584.84 123.937 595.59 127.543 606.273 131.218C613.213 133.667 620.153 136.389 627.093 139.11L645.6 107.131C616.207 96.993 578.648 85.6301 549.391 79.1662C534.762 76.1724 504.347 69.7766 481.962 67.5313C459.645 65.1498 437.735 63.5168 416.167 64.1292C373.165 65.2859 332.204 72.158 296.959 86.2425C261.646 100.123 232.184 119.514 210.479 140.879C188.434 161.972 173.056 183.473 162.306 202.048C151.351 220.555 144.615 235.864 140.261 246.411C138.015 251.65 136.655 255.732 135.566 258.522C134.545 261.244 134.001 262.672 134.001 262.672C134.001 262.672 136.995 257.365 142.574 247.499C148.222 237.701 156.999 223.549 169.586 206.811C175.778 198.306 183.263 189.529 191.768 180.411Z" fill="#6C002D"/>
</g>
</g>
</g>
</g>
</svg>
